<?xml version="1.0" encoding="UTF-8"?>
<svg id="Capa_1" data-name="Capa 1" xmlns="http://www.w3.org/2000/svg" viewBox="0 0 108.29 96.97">
  <defs>
    <style>
      .cls-1 {
        stroke: #00f0ff;
        stroke-miterlimit: 10;
        stroke-width: 2px;
      }

      .cls-1, .cls-2 {
        fill: #00f0ff;
      }

      .cls-2 {
        stroke-width: 0px;
      }
    </style>
  </defs>
  <path class="cls-1" d="m83.25,35.5h-14.87c-3.02-.01-5.61-1.82-6.76-4.39,0,0-2.6-6.05-2.62-6.09-1.15-2.61-3.77-4.43-6.8-4.43h-27.13c-10.84,0-20.04,8.86-19.84,19.7.19,10.5,8.77,18.97,19.33,18.97h27.65c3.03,0,5.63,1.8,6.79,4.39l2.74,6.36c1.21,2.47,3.74,4.16,6.68,4.16h15.31c.95,0,1.88-.07,2.8-.2l-3.4-5.87h-14.75c-3.02-.01-5.59-1.8-6.75-4.39l-2.62-6.08c-1.15-2.61-3.77-4.44-6.8-4.44h-27.21c-7.3,0-13.56-5.71-13.69-13-.13-7.44,5.85-13.51,13.25-13.51h27.65c3.03,0,5.63,1.8,6.79,4.38l2.74,6.36c1.21,2.47,3.74,4.16,6.68,4.16h14.93c7.06,0,13.18,5.37,13.62,12.43.21,3.67-1.05,7.03-3.25,9.55l3.16,5.47c3.92-3.65,6.33-8.89,6.19-14.7-.28-10.56-9.25-18.82-19.81-18.82Z"/>
  <rect class="cls-2" x="77.62" y="62.7" width="22.06" height="7.04" rx="3.14" ry="3.14" transform="translate(101.67 -43.66) rotate(60)"/>
</svg>